<mxfile host="app.diagrams.net" modified="2024-01-23T10:54:43.830Z" agent="Mozilla/5.0 (Macintosh; Intel Mac OS X 10_15_7) AppleWebKit/537.36 (KHTML, like Gecko) Chrome/120.0.0.0 Safari/537.36" etag="WBhVw8lM69JsnPF1gIQf" version="22.1.21" type="github">
  <diagram name="第 1 页" id="bOrFfcmrYN4YPPrKV46s">
    <mxGraphModel dx="1674" dy="786" grid="1" gridSize="10" guides="1" tooltips="1" connect="1" arrows="1" fold="1" page="1" pageScale="1" pageWidth="827" pageHeight="1169" math="0" shadow="0">
      <root>
        <mxCell id="0" />
        <mxCell id="1" parent="0" />
        <mxCell id="92oQSwMsrEup4NASv3zr-1" value="" style="edgeStyle=orthogonalEdgeStyle;rounded=0;orthogonalLoop=1;jettySize=auto;html=1;" edge="1" parent="1" source="92oQSwMsrEup4NASv3zr-3" target="92oQSwMsrEup4NASv3zr-7">
          <mxGeometry relative="1" as="geometry" />
        </mxCell>
        <mxCell id="92oQSwMsrEup4NASv3zr-3" value="NewNoteItemChildController" style="swimlane;fontStyle=1;align=center;verticalAlign=top;childLayout=stackLayout;horizontal=1;startSize=26;horizontalStack=0;resizeParent=1;resizeParentMax=0;resizeLast=0;collapsible=1;marginBottom=0;whiteSpace=wrap;html=1;" vertex="1" parent="1">
          <mxGeometry x="30" y="80" width="180" height="90" as="geometry" />
        </mxCell>
        <mxCell id="92oQSwMsrEup4NASv3zr-4" value="" style="line;strokeWidth=1;fillColor=none;align=left;verticalAlign=middle;spacingTop=-1;spacingLeft=3;spacingRight=3;rotatable=0;labelPosition=right;points=[];portConstraint=eastwest;strokeColor=inherit;" vertex="1" parent="92oQSwMsrEup4NASv3zr-3">
          <mxGeometry y="26" width="180" height="8" as="geometry" />
        </mxCell>
        <mxCell id="92oQSwMsrEup4NASv3zr-5" value="# onAttach()&lt;br&gt;-----------&amp;gt;&lt;br&gt;- bindSubjectView()" style="text;strokeColor=none;fillColor=none;align=left;verticalAlign=top;spacingLeft=4;spacingRight=4;overflow=hidden;rotatable=0;points=[[0,0.5],[1,0.5]];portConstraint=eastwest;whiteSpace=wrap;html=1;" vertex="1" parent="92oQSwMsrEup4NASv3zr-3">
          <mxGeometry y="34" width="180" height="56" as="geometry" />
        </mxCell>
        <mxCell id="92oQSwMsrEup4NASv3zr-6" value="" style="edgeStyle=orthogonalEdgeStyle;rounded=0;orthogonalLoop=1;jettySize=auto;html=1;" edge="1" parent="1" source="92oQSwMsrEup4NASv3zr-7" target="92oQSwMsrEup4NASv3zr-10">
          <mxGeometry relative="1" as="geometry" />
        </mxCell>
        <mxCell id="92oQSwMsrEup4NASv3zr-7" value="NewNoteItemChildPresenter" style="swimlane;fontStyle=1;align=center;verticalAlign=top;childLayout=stackLayout;horizontal=1;startSize=26;horizontalStack=0;resizeParent=1;resizeParentMax=0;resizeLast=0;collapsible=1;marginBottom=0;whiteSpace=wrap;html=1;" vertex="1" parent="1">
          <mxGeometry x="360" y="50" width="190" height="150" as="geometry" />
        </mxCell>
        <mxCell id="92oQSwMsrEup4NASv3zr-8" value="" style="line;strokeWidth=1;fillColor=none;align=left;verticalAlign=middle;spacingTop=-1;spacingLeft=3;spacingRight=3;rotatable=0;labelPosition=right;points=[];portConstraint=eastwest;strokeColor=inherit;" vertex="1" parent="92oQSwMsrEup4NASv3zr-7">
          <mxGeometry y="26" width="190" height="8" as="geometry" />
        </mxCell>
        <mxCell id="92oQSwMsrEup4NASv3zr-9" value="# bindView()&lt;br&gt;-----------&amp;gt;&lt;br&gt;- bindNoteCover()&lt;br&gt;-----------&amp;gt;&lt;br&gt;- loadImage()&lt;br&gt;-----------&amp;gt;&lt;br&gt;-&amp;nbsp;addHomeFeedCacheListener()" style="text;strokeColor=none;fillColor=none;align=left;verticalAlign=top;spacingLeft=4;spacingRight=4;overflow=hidden;rotatable=0;points=[[0,0.5],[1,0.5]];portConstraint=eastwest;whiteSpace=wrap;html=1;" vertex="1" parent="92oQSwMsrEup4NASv3zr-7">
          <mxGeometry y="34" width="190" height="116" as="geometry" />
        </mxCell>
        <mxCell id="92oQSwMsrEup4NASv3zr-16" value="" style="edgeStyle=orthogonalEdgeStyle;rounded=0;orthogonalLoop=1;jettySize=auto;html=1;" edge="1" parent="1" source="92oQSwMsrEup4NASv3zr-10" target="92oQSwMsrEup4NASv3zr-13">
          <mxGeometry relative="1" as="geometry" />
        </mxCell>
        <mxCell id="92oQSwMsrEup4NASv3zr-17" value="如果首刷四张缓存图片加载完成，标志着首刷结束" style="edgeLabel;html=1;align=center;verticalAlign=middle;resizable=0;points=[];" vertex="1" connectable="0" parent="92oQSwMsrEup4NASv3zr-16">
          <mxGeometry x="0.075" y="-3" relative="1" as="geometry">
            <mxPoint as="offset" />
          </mxGeometry>
        </mxCell>
        <mxCell id="92oQSwMsrEup4NASv3zr-10" value="FistScreenHelperV2" style="swimlane;fontStyle=1;align=center;verticalAlign=top;childLayout=stackLayout;horizontal=1;startSize=26;horizontalStack=0;resizeParent=1;resizeParentMax=0;resizeLast=0;collapsible=1;marginBottom=0;whiteSpace=wrap;html=1;" vertex="1" parent="1">
          <mxGeometry x="630" y="90" width="270" height="70" as="geometry" />
        </mxCell>
        <mxCell id="92oQSwMsrEup4NASv3zr-11" value="" style="line;strokeWidth=1;fillColor=none;align=left;verticalAlign=middle;spacingTop=-1;spacingLeft=3;spacingRight=3;rotatable=0;labelPosition=right;points=[];portConstraint=eastwest;strokeColor=inherit;" vertex="1" parent="92oQSwMsrEup4NASv3zr-10">
          <mxGeometry y="26" width="270" height="8" as="geometry" />
        </mxCell>
        <mxCell id="92oQSwMsrEup4NASv3zr-12" value="#&amp;nbsp;addDenAndMolWhenUseHomeFeedCache()" style="text;strokeColor=none;fillColor=none;align=left;verticalAlign=top;spacingLeft=4;spacingRight=4;overflow=hidden;rotatable=0;points=[[0,0.5],[1,0.5]];portConstraint=eastwest;whiteSpace=wrap;html=1;" vertex="1" parent="92oQSwMsrEup4NASv3zr-10">
          <mxGeometry y="34" width="270" height="36" as="geometry" />
        </mxCell>
        <mxCell id="92oQSwMsrEup4NASv3zr-21" value="" style="edgeStyle=orthogonalEdgeStyle;rounded=0;orthogonalLoop=1;jettySize=auto;html=1;" edge="1" parent="1" source="92oQSwMsrEup4NASv3zr-13" target="92oQSwMsrEup4NASv3zr-18">
          <mxGeometry relative="1" as="geometry" />
        </mxCell>
        <mxCell id="92oQSwMsrEup4NASv3zr-13" value="CostTrackHelper" style="swimlane;fontStyle=1;align=center;verticalAlign=top;childLayout=stackLayout;horizontal=1;startSize=26;horizontalStack=0;resizeParent=1;resizeParentMax=0;resizeLast=0;collapsible=1;marginBottom=0;whiteSpace=wrap;html=1;" vertex="1" parent="1">
          <mxGeometry x="630" y="240" width="270" height="70" as="geometry" />
        </mxCell>
        <mxCell id="92oQSwMsrEup4NASv3zr-14" value="" style="line;strokeWidth=1;fillColor=none;align=left;verticalAlign=middle;spacingTop=-1;spacingLeft=3;spacingRight=3;rotatable=0;labelPosition=right;points=[];portConstraint=eastwest;strokeColor=inherit;" vertex="1" parent="92oQSwMsrEup4NASv3zr-13">
          <mxGeometry y="26" width="270" height="8" as="geometry" />
        </mxCell>
        <mxCell id="92oQSwMsrEup4NASv3zr-15" value="#&amp;nbsp;recordFeedCacheRefreshEnd()" style="text;strokeColor=none;fillColor=none;align=left;verticalAlign=top;spacingLeft=4;spacingRight=4;overflow=hidden;rotatable=0;points=[[0,0.5],[1,0.5]];portConstraint=eastwest;whiteSpace=wrap;html=1;" vertex="1" parent="92oQSwMsrEup4NASv3zr-13">
          <mxGeometry y="34" width="270" height="36" as="geometry" />
        </mxCell>
        <mxCell id="92oQSwMsrEup4NASv3zr-25" value="" style="edgeStyle=orthogonalEdgeStyle;rounded=0;orthogonalLoop=1;jettySize=auto;html=1;" edge="1" parent="1" source="92oQSwMsrEup4NASv3zr-18" target="92oQSwMsrEup4NASv3zr-22">
          <mxGeometry relative="1" as="geometry" />
        </mxCell>
        <mxCell id="92oQSwMsrEup4NASv3zr-18" value="CostTracker" style="swimlane;fontStyle=1;align=center;verticalAlign=top;childLayout=stackLayout;horizontal=1;startSize=26;horizontalStack=0;resizeParent=1;resizeParentMax=0;resizeLast=0;collapsible=1;marginBottom=0;whiteSpace=wrap;html=1;" vertex="1" parent="1">
          <mxGeometry x="630" y="390" width="270" height="70" as="geometry" />
        </mxCell>
        <mxCell id="92oQSwMsrEup4NASv3zr-19" value="" style="line;strokeWidth=1;fillColor=none;align=left;verticalAlign=middle;spacingTop=-1;spacingLeft=3;spacingRight=3;rotatable=0;labelPosition=right;points=[];portConstraint=eastwest;strokeColor=inherit;" vertex="1" parent="92oQSwMsrEup4NASv3zr-18">
          <mxGeometry y="26" width="270" height="8" as="geometry" />
        </mxCell>
        <mxCell id="92oQSwMsrEup4NASv3zr-20" value="# abstract&amp;nbsp;recordFeedCacheRefreshEnd()" style="text;strokeColor=none;fillColor=none;align=left;verticalAlign=top;spacingLeft=4;spacingRight=4;overflow=hidden;rotatable=0;points=[[0,0.5],[1,0.5]];portConstraint=eastwest;whiteSpace=wrap;html=1;" vertex="1" parent="92oQSwMsrEup4NASv3zr-18">
          <mxGeometry y="34" width="270" height="36" as="geometry" />
        </mxCell>
        <mxCell id="92oQSwMsrEup4NASv3zr-22" value="FirstScreenImagesLoadTracker" style="swimlane;fontStyle=1;align=center;verticalAlign=top;childLayout=stackLayout;horizontal=1;startSize=26;horizontalStack=0;resizeParent=1;resizeParentMax=0;resizeLast=0;collapsible=1;marginBottom=0;whiteSpace=wrap;html=1;" vertex="1" parent="1">
          <mxGeometry x="630" y="540" width="270" height="70" as="geometry" />
        </mxCell>
        <mxCell id="92oQSwMsrEup4NASv3zr-23" value="" style="line;strokeWidth=1;fillColor=none;align=left;verticalAlign=middle;spacingTop=-1;spacingLeft=3;spacingRight=3;rotatable=0;labelPosition=right;points=[];portConstraint=eastwest;strokeColor=inherit;" vertex="1" parent="92oQSwMsrEup4NASv3zr-22">
          <mxGeometry y="26" width="270" height="8" as="geometry" />
        </mxCell>
        <mxCell id="92oQSwMsrEup4NASv3zr-24" value="# recordFeedCacheRefreshEnd()" style="text;strokeColor=none;fillColor=none;align=left;verticalAlign=top;spacingLeft=4;spacingRight=4;overflow=hidden;rotatable=0;points=[[0,0.5],[1,0.5]];portConstraint=eastwest;whiteSpace=wrap;html=1;" vertex="1" parent="92oQSwMsrEup4NASv3zr-22">
          <mxGeometry y="34" width="270" height="36" as="geometry" />
        </mxCell>
      </root>
    </mxGraphModel>
  </diagram>
</mxfile>
